{"title":"Arrow S04E13 Sins of the Father 1080P WEB-DL DD5 1 H 264","uid":13500931,"size":1721688708,"categoryP":"video","categoryS":"hd___tv_shows","magnet":"?xt=urn:btih:1e3a39bb288336502d0a5428e4fb5cc9f5ab0c6e&amp;dn=Arrow+S04E13+Sins+of+the+Father+1080P+WEB-DL+DD5+1+H+264&amp;tr=udp%3A%2F%2Ftracker.leechers-paradise.org%3A6969&amp;tr=udp%3A%2F%2Fzer0day.ch%3A1337&amp;tr=udp%3A%2F%2Fopen.demonii.com%3A1337&amp;tr=udp%3A%2F%2Ftracker.coppersurfer.tk%3A6969&amp;tr=udp%3A%2F%2Fexodus.desync.com%3A6969","seeders":1,"leechers":0,"uploader":"jmanwf","files":2,"time":1455195866,"description":"Oliver receives an offer from Nyssa that is hard to refuse. Meanwhile, Thea continues to battle her bloodlust, and Malcolm steps in to help his daughter. Laurel has a heart-to-heart talk with Nyssa.\r\n\r\n\r\nVideo\r\nID : 2\r\nFormat : AVC\r\nFormat/Info : Advanced Video Codec\r\nFormat profile :   \r\nFormat settings, CABAC : Yes\r\nFormat settings, ReFrames : 4 frames\r\nCodec ID : avc1\r\nCodec ID/Info : Advanced Video Coding\r\nDuration : 42mn 23s\r\nBit rate : 4 903 Kbps\r\nWidth : 1 916 pixels\r\nHeight : 1 076 pixels\r\nDisplay aspect ratio : 16:9\r\nFrame rate mode : Constant\r\nFrame rate : 23.976 fps\r\nColor space : YUV\r\nChroma subsampling : 4:2:0\r\nBit depth : 8 bits\r\nScan type : Progressive\r\nBits/(Pixel*Frame) : 0.099\r\nStream size : 1.45 GiB (91%)\r\nLanguage : English\r\nEncoded date : UTC 2016-02-11 10:55:03\r\nTagged date : UTC 2016-02-11 11:00:39\r\nColor range : Limited\r\nColor primaries : BT.709\r\nTransfer characteristics : BT.709\r\nMatrix coefficients : BT.709\r\n\r\nAudio #1\r\nID : 1\r\nFormat : AAC\r\nFormat/Info : Advanced Audio Codec\r\nFormat profile : LC\r\nCodec ID : 40\r\nDuration : 42mn 22s\r\nBit rate mode : Variable\r\nBit rate : 125 Kbps\r\nMaximum bit rate : 202 Kbps\r\nChannel(s) : 2 channels\r\nChannel positions : Front: L R\r\nSampling rate : 48.0 KHz\r\nCompression mode : Lossy\r\nStream size : 37.9 MiB (2%)\r\nLanguage : English\r\nEncoded date : UTC 2016-02-11 10:55:03\r\nTagged date : UTC 2016-02-11 11:00:39\r\n\r\nAudio #2\r\nID : 3\r\nFormat : AC-3\r\nFormat/Info : Audio Coding 3\r\nMode extension : CM (complete main)\r\nFormat settings, Endianness : Big\r\nCodec ID : ac-3\r\nDuration : 42mn 22s\r\nBit rate mode : Constant\r\nBit rate : 384 Kbps\r\nChannel(s) : 6 channels\r\nChannel positions : Front: L C R, Side: L R, LFE\r\nSampling rate : 48.0 KHz\r\nBit depth : 16 bits\r\nCompression mode : Lossy\r\nStream size : 116 MiB (7%)\r\nLanguage : English\r\nEncoded date : UTC 2016-02-11 10:55:03\r\nTagged date : UTC 2016-02-11 11:00:39\r\n\r\nText\r\nID : 4-CC1\r\nFormat : EIA-608\r\nMuxing mode : Final Cut\r\nCodec ID : c608\r\nDuration : 41mn 48s\r\nBit rate mode : Constant\r\nStream size : 0.00 Byte (0%)\r\nLanguage : English\r\nEncoded date : UTC 2016-02-11 10:55:03\r\nTagged date : UTC 2016-02-11 10:55:18","torrent":{"xt":"urn:btih:1e3a39bb288336502d0a5428e4fb5cc9f5ab0c6e","amp;dn":"Arrow+S04E13+Sins+of+the+Father+1080P+WEB-DL+DD5+1+H+264","amp;tr":["udp%3A%2F%2Ftracker.leechers-paradise.org%3A6969","udp%3A%2F%2Fzer0day.ch%3A1337","udp%3A%2F%2Fopen.demonii.com%3A1337","udp%3A%2F%2Ftracker.coppersurfer.tk%3A6969","udp%3A%2F%2Fexodus.desync.com%3A6969"],"infoHash":"1e3a39bb288336502d0a5428e4fb5cc9f5ab0c6e","infoHashBuffer":{"type":"Buffer","data":[30,58,57,187,40,131,54,80,45,10,84,40,228,251,92,201,245,171,12,110]},"announce":[],"urlList":[]}}